<svg xmlns="http://www.w3.org/2000/svg" viewBox="0 0 64 64"><circle cx="32" cy="32" r="32" fill="#b34e3c"/><path fill="#f7f5f4" d="M20 16h6a4 4 0 0 1 4 4v6a4 4 0 0 1-4 4h-6a4 4 0 0 1-4-4v-6a4 4 0 0 1 4-4z"/><path fill="#f7f5f4" d="M20 34h6a4 4 0 0 1 4 4v6a4 4 0 0 1-4 4h-6a4 4 0 0 1-4-4v-6a4 4 0 0 1 4-4z"/><path fill="#f7f5f4" d="M38 16h6a4 4 0 0 1 4 4v6a4 4 0 0 1-4 4h-6a4 4 0 0 1-4-4v-6a4 4 0 0 1 4-4z"/><path fill="#f7f5f4" d="M38 34h6a4 4 0 0 1 4 4v6a4 4 0 0 1-4 4h-6a4 4 0 0 1-4-4v-6a4 4 0 0 1 4-4z"/></svg>
